<svg width="74" height="22" viewBox="0 0 74 22" fill="none" xmlns="http://www.w3.org/2000/svg">
<path d="M7.204 1.54C7.35333 1.52133 7.58667 1.512 7.904 1.512H8.632C9.88267 1.512 11.1053 1.60533 12.3 1.792C12.916 1.88533 13.392 1.97867 13.728 2.072V6.076C13.448 6.05733 12.9813 6.01067 12.328 5.936C11.4507 5.84267 10.6853 5.796 10.032 5.796C9.304 5.796 8.716 5.824 8.268 5.88C7.83867 5.91733 7.484 5.992 7.204 6.104V1.54ZM8.632 21.224C6.76533 21.224 5.28133 21.0653 4.18 20.748C3.09733 20.412 2.276 19.8613 1.716 19.096C1.17467 18.368 0.801333 17.4067 0.596 16.212C0.409333 14.9987 0.316 13.384 0.316 11.368C0.316 9.59467 0.381333 8.15733 0.512 7.056C0.661333 5.95467 0.922667 5.03067 1.296 4.284C1.688 3.51867 2.25733 2.93067 3.004 2.52C3.76933 2.09067 4.77733 1.80133 6.028 1.652V11.368C6.028 12.4133 6.04667 13.4213 6.084 14.392C6.12133 15.1387 6.26133 15.6987 6.504 16.072C6.76533 16.4453 7.16667 16.6787 7.708 16.772C8.23067 16.884 9.00533 16.94 10.032 16.94C11.096 16.94 12.0013 16.8933 12.748 16.8C13.0467 16.7813 13.4107 16.7347 13.84 16.66V20.72C12.9253 20.9253 11.8893 21.0653 10.732 21.14C10.0973 21.196 9.39733 21.224 8.632 21.224ZM16.5101 0.195999H21.6901V21H16.5101V0.195999ZM24.6021 14.252C24.6021 13.2627 24.5927 12.6093 24.5741 12.292C24.5367 11.7693 24.4901 11.424 24.4341 11.256C24.3594 11.0693 24.2287 10.9573 24.0421 10.92C23.8554 10.864 23.5567 10.836 23.1461 10.836H22.8661V7.42C23.6127 6.82267 24.5647 6.524 25.7221 6.524C27.4021 6.524 28.5314 7.03733 29.1101 8.064C29.3714 8.512 29.5487 9.06267 29.6421 9.716C29.7354 10.3507 29.7821 11.1347 29.7821 12.068V21H24.6021V14.252ZM40.951 13.888C40.951 12.936 40.9417 12.3013 40.923 11.984C40.9043 11.536 40.8483 11.2 40.755 10.976C40.6617 10.7333 40.5123 10.584 40.307 10.528C40.083 10.472 39.775 10.444 39.383 10.444H38.991V6.496H39.383C41.007 6.496 42.2763 6.62667 43.191 6.888C44.1057 7.13067 44.787 7.54133 45.235 8.12C45.6457 8.64267 45.907 9.34267 46.019 10.22C46.1497 11.0787 46.215 12.3013 46.215 13.888C46.215 15.3627 46.1683 16.5107 46.075 17.332C46.0003 18.1347 45.8043 18.7973 45.487 19.32C45.1323 19.8987 44.6003 20.3373 43.891 20.636C43.1817 20.916 42.2017 21.0933 40.951 21.168V13.888ZM39.383 21.224C37.759 21.224 36.4897 21.1027 35.575 20.86C34.6603 20.6173 33.979 20.2067 33.531 19.628C33.1203 19.1053 32.8497 18.4147 32.719 17.556C32.607 16.6973 32.551 15.4747 32.551 13.888C32.551 12.432 32.5977 11.2933 32.691 10.472C32.7843 9.65067 32.9897 8.96933 33.307 8.428C33.643 7.83067 34.1657 7.392 34.875 7.112C35.5843 6.81333 36.5643 6.62667 37.815 6.552V13.888C37.815 14.84 37.8243 15.4653 37.843 15.764C37.8617 16.212 37.9177 16.548 38.011 16.772C38.1043 16.996 38.263 17.136 38.487 17.192C38.6737 17.248 38.9723 17.276 39.383 17.276H39.775V21.224H39.383ZM55.3504 7.532C55.7424 7.15867 56.1998 6.89733 56.7224 6.748C57.2638 6.58 57.9264 6.496 58.7104 6.496V11.172C57.8704 11.172 57.1798 11.228 56.6384 11.34C56.1158 11.452 55.6864 11.648 55.3504 11.928V7.532ZM48.9944 6.72H54.1744V21H48.9944V6.72ZM67.9235 12.152C67.9235 11.6667 67.9049 11.3213 67.8675 11.116C67.8302 10.9107 67.7182 10.7613 67.5315 10.668C67.3635 10.5747 67.0462 10.5093 66.5795 10.472C66.2995 10.4533 65.6929 10.444 64.7595 10.444C63.8635 10.444 63.0329 10.4813 62.2675 10.556L60.7835 10.64V7C62.5382 6.664 64.4329 6.496 66.4675 6.496C68.0355 6.496 69.2582 6.608 70.1355 6.832C71.0315 7.056 71.7035 7.41067 72.1515 7.896C72.5435 8.344 72.7955 8.91333 72.9075 9.604C73.0382 10.2947 73.1035 11.256 73.1035 12.488V21H67.9235V12.152ZM63.7795 21.196C62.4915 21.196 61.5395 20.8413 60.9235 20.132C60.3075 19.404 59.9995 18.312 59.9995 16.856C59.9995 15.96 60.0649 15.2413 60.1955 14.7C60.3262 14.14 60.5502 13.7013 60.8675 13.384C61.1849 13.048 61.6235 12.8147 62.1835 12.684C62.7435 12.5347 63.4809 12.46 64.3955 12.46L66.7475 12.516V15.008H66.4675C66.0382 15.008 65.7582 15.0173 65.6275 15.036C65.2542 15.0547 65.0582 15.232 65.0395 15.568C65.0209 15.68 65.0115 15.9133 65.0115 16.268C65.0115 16.548 65.0209 16.7627 65.0395 16.912C65.0769 17.0613 65.1329 17.1827 65.2075 17.276C65.3009 17.4067 65.4409 17.4813 65.6275 17.5C65.8889 17.5373 66.1689 17.556 66.4675 17.556H66.7475V20.412C66.3369 20.7293 65.8982 20.9347 65.4315 21.028C64.9835 21.14 64.4329 21.196 63.7795 21.196Z" fill="white"/>
</svg>
