<?xml version="1.0"?>
<svg xmlns="http://www.w3.org/2000/svg" xmlns:xlink="http://www.w3.org/1999/xlink" xmlns:svgjs="http://svgjs.com/svgjs" version="1.1" width="128" height="128" x="0" y="0" viewBox="0 0 512.183 512.183" style="enable-background:new 0 0 512 512" xml:space="preserve" class=""><g><g xmlns="http://www.w3.org/2000/svg"><g><path d="m511.84 267.391c2.668-60.184-15.521-118.681-52.036-166.441-2.512-3.294-7.218-3.928-10.512-1.418-3.294 2.511-3.929 7.217-1.418 10.512 29.182 38.283 45.895 83.333 48.767 131.086-9.105-8.806-21.49-14.241-35.127-14.241h-32.586c-4.049-52.835-19.121-102.195-43.071-141.62 10.151-2.953 20.078-6.263 29.741-9.913 3.356 2.97 6.649 6.031 9.861 9.204 2.945 2.91 7.694 2.881 10.606-.064 2.911-2.946 2.882-7.695-.064-10.606-161.302-159.022-435.714-44.357-435.913 182.116-.577 209.064 240.442 330.519 408.148 205.882h10.031c9.931-.344 9.923-14.659 0-15h-90.607c-19.615 0-35.573-15.958-35.573-35.573v-133.854c0-19.615 15.958-35.573 35.573-35.573h133.854c19.615 0 35.573 15.958 35.573 35.573v133.854c0 19.615-15.958 35.573-35.573 35.573h-8.376c-9.931.344-9.923 14.659 0 15h8.376c27.886 0 50.573-22.687 50.573-50.573v-133.854c0-2.72-.222-5.388-.638-7.993.222-.655.359-1.351.391-2.077zm-109.681-203.104c-8.123 2.856-16.426 5.47-24.887 7.829-11.864-17.051-26.211-32.268-41.035-43.507 23.595 8.299 45.809 20.294 65.922 35.678zm-146.072 432.717c-8.901 1.606-26.017-26.12-35.494-71.919 19.227-1.469 38.859-1.754 58.183-.813 1.717 6.472 4.688 12.437 8.637 17.621-11.114 40.601-23.761 55.111-31.326 55.111zm-48.96-63.555c6.4 26.991 13.905 47.074 22.447 60.184-30.067-7.687-57.29-28.214-79.129-57.727 17.857-4.246 36.294-7.427 55.089-9.459.521 2.365 1.049 4.707 1.593 7.002zm69.96-155.988v131.712c-19.807-.851-39.887-.488-59.566 1.084-7.96-41.602-12.445-92.654-12.825-146.753h74.365c-1.276 4.436-1.974 9.115-1.974 13.957zm-123.846-28.957c-9.931.344-9.923 14.659 0 15h36.455c.378 54.407 4.862 105.903 12.83 148.179-20.9 2.324-41.389 6-61.15 10.975-26.322-41.633-42.905-97.517-44.154-159.154h20.943c9.931-.344 9.923-14.659 0-15h-20.944c1.249-61.638 17.833-117.523 44.156-159.157 19.762 4.973 40.251 8.649 61.149 10.973-7.968 42.277-12.453 93.774-12.831 148.184zm-2.794-172.404c21.838-29.512 49.061-50.038 79.128-57.726-9.04 13.135-18.525 40.921-24.04 67.184-18.793-2.032-37.23-5.213-55.088-9.458zm71.275 5.919c24.365-95.775 48.403-83.557 69.813 4.928-23.448 1.782-47.493 1.769-70.941-.028.371-1.651.746-3.287 1.128-4.9zm81.637-10.313c-6.032-23.543-12.975-41.334-20.773-53.31 29.206 7.512 56.598 27.362 79.094 57.742-17.839 4.238-36.266 7.393-55.038 9.423-1.048-4.77-2.141-9.399-3.283-13.855zm-168.45.4c-8.408-2.344-16.661-4.937-24.736-7.772 19.622-14.973 41.597-27.005 65.271-35.436-14.697 11.303-28.341 25.778-40.535 43.208zm-38.206 3.295c9.622 3.631 19.507 6.922 29.615 9.863-27.429 45.107-42.923 102.39-44.101 163.24h-67.002c2.115-68.818 33.22-130.456 81.488-173.103zm-81.488 188.103h67.002c1.178 60.849 16.672 118.132 44.1 163.239-10.107 2.941-19.99 6.235-29.611 9.867-48.269-42.647-79.376-104.287-81.491-173.106zm94.965 184.175c8.073-2.835 16.32-5.435 24.727-7.78 12.195 17.43 25.839 31.907 40.537 43.211-23.67-8.431-45.644-20.46-65.264-35.431zm226.152 35.691c8.087-6.193 15.88-13.365 23.324-21.482h21.765c-14.334 8.765-29.422 15.953-45.089 21.482zm2.204-21.482c-17.28 16.016-36.202 26.734-56.003 31.777 6.289-9.639 12.025-23.063 17.177-40.229 8.013 5.335 17.623 8.452 27.95 8.452zm-52.301-213.384h-81.538c.38-54.101 4.865-105.155 12.825-146.758 25.48 2.04 51.629 2.041 77.107.003 6.543 33.905 11.358 77.318 12.584 129.472-8.467 3.76-15.714 9.775-20.978 17.283zm35.881-21.306c-1.268-46.55-5.598-90.34-12.471-126.875 20.883-2.321 41.355-5.993 61.104-10.961 23.891 37.705 38.997 85.768 43.127 137.526h-86.216c-1.874 0-3.722.11-5.544.31z" fill="#808080" data-original="#000000" style="" class=""/><path d="m465.164 391.834c.144-6.121-2.255-12.114-6.584-16.442l-32.173-32.173 32.173-32.173c4.329-4.328 6.728-10.321 6.584-16.442-.146-6.208-2.762-11.934-7.364-16.122-8.894-8.094-22.66-7.636-31.339 1.044l-31.874 31.874-31.874-31.874c-14.056-14.193-38.272-4.741-38.704 15.078-.144 6.121 2.255 12.114 6.584 16.442l32.173 32.173-31.874 31.874c-14.192 14.055-4.741 38.272 15.078 38.704 6.11.145 12.116-2.255 16.442-6.584l32.173-32.173 31.874 31.874c14.057 14.19 38.273 4.739 38.705-15.08zm-17.46 5.029c-2.91 2.647-7.682 2.398-10.637-.557l-35.763-35.763c-3.535-3.685-9.899-3.685-13.435 0l-36.062 36.062c-1.464 1.464-3.393 2.247-5.482 2.194-2.068-.048-3.979-.924-5.381-2.464-2.648-2.91-2.398-7.682.557-10.637l35.761-35.761c3.687-3.536 3.688-9.9.001-13.437l-36.063-36.061c-1.464-1.464-2.243-3.411-2.194-5.482.099-6.772 8.487-9.589 13.101-4.825l35.761 35.761c3.535 3.687 9.903 3.688 13.437.001l35.764-35.763c2.955-2.956 7.726-3.204 10.636-.557 1.541 1.402 2.416 3.313 2.464 5.381.049 2.071-.73 4.019-2.194 5.482l-36.062 36.062c-3.686 3.536-3.686 9.899 0 13.435l36.062 36.062c1.464 1.464 2.244 3.411 2.195 5.482-.05 2.072-.926 3.983-2.466 5.385z" fill="#808080" data-original="#000000" style="" class=""/></g></g></g></svg>
